<svg xmlns="http://www.w3.org/2000/svg" style="display: none" id="loox-rating-icon-svg-store">
	<defs></defs>
	<symbol id="looxicons-rating-icon-fill" viewBox="0 0 24 24" fill="currentcolor">
		<path d="M24 9.425c0 .212-.125.443-.375.693l-5.236 5.105 1.24 7.212c.01.067.015.164.015.289a.85.85 0 0 1-.151.511.51.51 0 0 1-.44.21c-.183 0-.375-.058-.577-.174L12 19.869l-6.476 3.404c-.212.115-.404.173-.577.173-.202 0-.353-.07-.454-.21a.85.85 0 0 1-.152-.511c0-.058.01-.154.03-.289l1.24-7.211-5.25-5.106C.12 9.858 0 9.628 0 9.425c0-.355.27-.577.808-.663l7.24-1.053 3.245-6.562c.183-.395.418-.592.707-.592s.524.197.707.592l3.245 6.562 7.24 1.053c.539.086.808.308.808.663Z"></path>
	</symbol>
	<symbol id="looxicons-rating-icon-line" viewBox="0 0 24 24" fill="currentcolor">
		<path d="m16.399 14.574 4.413-4.283-6.086-.894L12 3.887l-2.726 5.51-6.086.894L7.6 14.574l-1.053 6.072L12 17.776l5.438 2.87-1.039-6.072ZM24 9.425c0 .212-.125.443-.375.693l-5.236 5.105 1.24 7.212c.01.067.015.164.015.289 0 .48-.197.72-.591.72-.183 0-.375-.057-.577-.172L12 19.867l-6.476 3.404c-.212.115-.404.173-.577.173-.202 0-.353-.07-.454-.21a.85.85 0 0 1-.152-.511c0-.058.01-.154.03-.289l1.24-7.211-5.25-5.106C.12 9.858 0 9.628 0 9.425c0-.355.27-.577.808-.663l7.24-1.053 3.245-6.562c.183-.395.418-.592.707-.592s.524.197.707.592l3.245 6.562 7.24 1.053c.539.086.808.308.808.663Z"></path>
	</symbol>
	<defs>
		<style>
			.lx-icon-fill {
				--lx-fill-width: calc(100% - var(--lx-rating-percent, 0%));
				clip-path: inset(0 var(--lx-fill-width, 0) 0 0);
			}
			.lx-icon-line {
				clip-path: inset(0 0 0 var(--lx-rating-percent, 0%));
			}
			[data-lx-fill='empty'] {
				--lx-rating-percent: 0%;
			}
			[data-lx-fill='half'] {
				--lx-rating-percent: 50%;
			}
			[data-lx-fill='full'] {
				--lx-rating-percent: 100%;
			}
		</style>

		<g id="looxicons-rating-icon">
			<use href="#looxicons-rating-icon-line" class="lx-icon-line"></use>
			<use href="#looxicons-rating-icon-fill" class="lx-icon-fill"></use>
		</g>
	</defs>
</svg>